<svg height="800" width="800" xmlns="http://www.w3.org/2000/svg" viewBox="0 0 512 512" xml:space="preserve"><path d="M454.313 249.708 512 206.991 462.136 38.939l-256.667 8.226-24.727 38.398L92.839 64.42 0 256.087l42.289 36.399-22.328 34.553c-7.052 10.914-9.432 23.92-6.701 36.624 2.73 12.704 10.245 23.583 21.158 30.635 7.963 5.146 17.042 7.804 26.304 7.804 2.438 0 4.887-.193 7.333-.565 3.097 11.013 10.047 20.988 20.388 27.67 8.142 5.262 17.282 7.774 26.323 7.774 2.442 0 4.873-.206 7.278-.567 3.198 11.44 10.36 21.2 20.423 27.703 8.143 5.262 17.282 7.774 26.323 7.774 15.973 0 31.639-7.845 40.934-22.231l6.634-10.268 38.853 25.758.162.107c7.963 5.146 17.042 7.805 26.304 7.805 3.43 0 6.887-.365 10.32-1.102 12.704-2.731 23.583-10.246 30.635-21.158 4.963-7.681 7.476-16.249 7.745-24.785 2.489-.146 4.985-.478 7.47-1.012 12.704-2.731 23.583-10.246 30.635-21.158 4.865-7.528 7.504-16.054 7.777-24.787 2.479-.147 4.963-.478 7.436-1.01 12.705-2.731 23.584-10.244 30.636-21.158 4.968-7.688 7.481-16.267 7.745-24.811 14.973-.869 29.358-8.609 38.102-22.144 7.052-10.914 9.432-23.92 6.703-36.624-1.943-9.036-6.303-17.148-12.568-23.605zM223.819 79.562l213.947-6.856 36.06 121.529-47.959 35.513-183.395-119.41-52.058 79.011-.08.123c-4.694 7.26-14.416 9.349-21.676 4.66-7.26-4.691-9.35-14.415-4.645-21.697l59.806-92.873zM73.986 361.949c-4.694 7.261-14.418 9.35-21.675 4.66-3.517-2.273-5.939-5.779-6.819-9.873-.879-4.094-.113-8.285 2.161-11.802l32.971-51.027c2.997-4.637 8.043-7.164 13.192-7.164 2.913 0 5.86.81 8.484 2.505 3.517 2.273 5.938 5.778 6.818 9.872s.113 8.286-2.159 11.803l-32.973 51.026zm54.025 34.909c-4.694 7.26-14.417 9.348-21.676 4.659-7.26-4.691-9.35-14.415-4.658-21.675l32.972-51.027c2.997-4.637 8.043-7.164 13.192-7.164 2.913 0 5.86.81 8.484 2.506 7.26 4.691 9.35 14.415 4.659 21.675l-32.973 51.026zm86.995-16.118-32.972 51.027c-4.691 7.262-14.415 9.349-21.674 4.659-3.517-2.273-5.939-5.779-6.818-9.873-.88-4.094-.114-8.285 2.159-11.803l32.972-51.027c2.273-3.517 5.778-5.938 9.872-6.818 1.107-.237 2.22-.355 3.324-.355 2.985 0 5.911.857 8.477 2.516 7.261 4.691 9.351 14.414 4.66 21.674zm217.482-88.699c-2.273 3.517-5.778 5.938-9.872 6.818-4.094.881-8.286.113-11.802-2.159l-10.939-7.068-.001-.001-51.028-32.972-17.892 27.69 10.94 7.07 40.088 25.904c3.517 2.273 5.938 5.778 6.818 9.872s.113 8.286-2.159 11.803-5.779 5.939-9.872 6.819c-4.095.879-8.285.113-11.803-2.159l-51.027-32.972-17.892 27.69 40.087 25.902c7.26 4.691 9.35 14.414 4.659 21.675-2.273 3.517-5.779 5.939-9.872 6.819-4.095.879-8.285.113-11.802-2.159l-43.558-28.145-17.892 27.69 32.617 21.076c7.26 4.693 9.351 14.415 4.659 21.676-2.273 3.517-5.778 5.939-9.872 6.819-4.068.874-8.232.122-11.735-2.117l-39.081-25.909 8.443-13.068c14.557-22.529 8.072-52.702-14.457-67.258-10.349-6.687-22.309-8.922-33.629-7.214-3.094-11.023-10.046-21.008-20.394-27.695-10.342-6.682-22.292-8.919-33.605-7.217-3.199-11.436-10.36-21.192-20.42-27.692-18.62-12.034-42.458-9.676-58.391 4.224l-21.076-18.14 70.215-144.958 50.897 12.241-25.527 39.639c-14.557 22.529-8.072 52.701 14.457 67.258 22.506 14.544 52.642 8.083 67.217-14.392l33.979-51.572 175.87 114.508c3.516 2.273 5.938 5.778 6.818 9.872.874 4.093.107 8.284-2.166 11.802z"/></svg>