<svg height="800" width="800" xmlns="http://www.w3.org/2000/svg" viewBox="0 0 512 512" xml:space="preserve"><path d="M256 106.667c29.461 0 53.333-23.872 53.333-53.333C309.333 23.872 285.461 0 256 0s-53.333 23.872-53.333 53.333c0 29.462 23.872 53.334 53.333 53.334zM298.667 128h-85.333C183.936 128 160 151.936 160 181.333v128c0 17.643 14.357 32 32 32 3.733 0 7.339-.64 10.667-1.813V480c0 17.643 14.357 32 32 32 8.192 0 15.659-3.093 21.333-8.171 5.675 5.077 13.141 8.171 21.333 8.171 17.643 0 32-14.357 32-32V339.52c3.328 1.173 6.933 1.813 10.667 1.813 17.643 0 32-14.357 32-32v-128C352 151.936 328.064 128 298.667 128z"/></svg>