<?xml version="1.0" encoding="UTF-8"?>
<svg xmlns="http://www.w3.org/2000/svg" xmlns:xlink="http://www.w3.org/1999/xlink" width="0" height="0">
<symbol id="burger" width="800" height="800" viewBox="0 0 24 24" fill="none"><path d="M5 12h15M5 17h15M5 7h15" stroke-width="2" stroke-linecap="round"/></symbol>
<symbol id="handshake" height="800" width="800" viewBox="0 0 512 512" xml:space="preserve"><path d="M454.313 249.708 512 206.991 462.136 38.939l-256.667 8.226-24.727 38.398L92.839 64.42 0 256.087l42.289 36.399-22.328 34.553c-7.052 10.914-9.432 23.92-6.701 36.624 2.73 12.704 10.245 23.583 21.158 30.635 7.963 5.146 17.042 7.804 26.304 7.804 2.438 0 4.887-.193 7.333-.565 3.097 11.013 10.047 20.988 20.388 27.67 8.142 5.262 17.282 7.774 26.323 7.774 2.442 0 4.873-.206 7.278-.567 3.198 11.44 10.36 21.2 20.423 27.703 8.143 5.262 17.282 7.774 26.323 7.774 15.973 0 31.639-7.845 40.934-22.231l6.634-10.268 38.853 25.758.162.107c7.963 5.146 17.042 7.805 26.304 7.805 3.43 0 6.887-.365 10.32-1.102 12.704-2.731 23.583-10.246 30.635-21.158 4.963-7.681 7.476-16.249 7.745-24.785 2.489-.146 4.985-.478 7.47-1.012 12.704-2.731 23.583-10.246 30.635-21.158 4.865-7.528 7.504-16.054 7.777-24.787 2.479-.147 4.963-.478 7.436-1.01 12.705-2.731 23.584-10.244 30.636-21.158 4.968-7.688 7.481-16.267 7.745-24.811 14.973-.869 29.358-8.609 38.102-22.144 7.052-10.914 9.432-23.92 6.703-36.624-1.943-9.036-6.303-17.148-12.568-23.605zM223.819 79.562l213.947-6.856 36.06 121.529-47.959 35.513-183.395-119.41-52.058 79.011-.08.123c-4.694 7.26-14.416 9.349-21.676 4.66-7.26-4.691-9.35-14.415-4.645-21.697l59.806-92.873zM73.986 361.949c-4.694 7.261-14.418 9.35-21.675 4.66-3.517-2.273-5.939-5.779-6.819-9.873-.879-4.094-.113-8.285 2.161-11.802l32.971-51.027c2.997-4.637 8.043-7.164 13.192-7.164 2.913 0 5.86.81 8.484 2.505 3.517 2.273 5.938 5.778 6.818 9.872s.113 8.286-2.159 11.803l-32.973 51.026zm54.025 34.909c-4.694 7.26-14.417 9.348-21.676 4.659-7.26-4.691-9.35-14.415-4.658-21.675l32.972-51.027c2.997-4.637 8.043-7.164 13.192-7.164 2.913 0 5.86.81 8.484 2.506 7.26 4.691 9.35 14.415 4.659 21.675l-32.973 51.026zm86.995-16.118-32.972 51.027c-4.691 7.262-14.415 9.349-21.674 4.659-3.517-2.273-5.939-5.779-6.818-9.873-.88-4.094-.114-8.285 2.159-11.803l32.972-51.027c2.273-3.517 5.778-5.938 9.872-6.818 1.107-.237 2.22-.355 3.324-.355 2.985 0 5.911.857 8.477 2.516 7.261 4.691 9.351 14.414 4.66 21.674zm217.482-88.699c-2.273 3.517-5.778 5.938-9.872 6.818-4.094.881-8.286.113-11.802-2.159l-10.939-7.068-.001-.001-51.028-32.972-17.892 27.69 10.94 7.07 40.088 25.904c3.517 2.273 5.938 5.778 6.818 9.872s.113 8.286-2.159 11.803-5.779 5.939-9.872 6.819c-4.095.879-8.285.113-11.803-2.159l-51.027-32.972-17.892 27.69 40.087 25.902c7.26 4.691 9.35 14.414 4.659 21.675-2.273 3.517-5.779 5.939-9.872 6.819-4.095.879-8.285.113-11.802-2.159l-43.558-28.145-17.892 27.69 32.617 21.076c7.26 4.693 9.351 14.415 4.659 21.676-2.273 3.517-5.778 5.939-9.872 6.819-4.068.874-8.232.122-11.735-2.117l-39.081-25.909 8.443-13.068c14.557-22.529 8.072-52.702-14.457-67.258-10.349-6.687-22.309-8.922-33.629-7.214-3.094-11.023-10.046-21.008-20.394-27.695-10.342-6.682-22.292-8.919-33.605-7.217-3.199-11.436-10.36-21.192-20.42-27.692-18.62-12.034-42.458-9.676-58.391 4.224l-21.076-18.14 70.215-144.958 50.897 12.241-25.527 39.639c-14.557 22.529-8.072 52.701 14.457 67.258 22.506 14.544 52.642 8.083 67.217-14.392l33.979-51.572 175.87 114.508c3.516 2.273 5.938 5.778 6.818 9.872.874 4.093.107 8.284-2.166 11.802z"/></symbol>
<symbol id="man" height="800" width="800" viewBox="0 0 512 512" xml:space="preserve"><path d="M256 106.667c29.461 0 53.333-23.872 53.333-53.333C309.333 23.872 285.461 0 256 0s-53.333 23.872-53.333 53.333c0 29.462 23.872 53.334 53.333 53.334zM298.667 128h-85.333C183.936 128 160 151.936 160 181.333v128c0 17.643 14.357 32 32 32 3.733 0 7.339-.64 10.667-1.813V480c0 17.643 14.357 32 32 32 8.192 0 15.659-3.093 21.333-8.171 5.675 5.077 13.141 8.171 21.333 8.171 17.643 0 32-14.357 32-32V339.52c3.328 1.173 6.933 1.813 10.667 1.813 17.643 0 32-14.357 32-32v-128C352 151.936 328.064 128 298.667 128z"/></symbol>
<symbol id="mood_happy" width="800" height="800" viewBox="0 0 20 20"><path d="M10 20a10 10 0 1 1 0-20 10 10 0 0 1 0 20zm0-2a8 8 0 1 0 0-16 8 8 0 0 0 0 16zM6.5 9a1.5 1.5 0 1 1 0-3 1.5 1.5 0 0 1 0 3zm7 0a1.5 1.5 0 1 1 0-3 1.5 1.5 0 0 1 0 3zm2.16 3a6 6 0 0 1-11.32 0h11.32z"/></symbol>
<symbol id="security" width="800" height="800" viewBox="0 0 48 48"><g data-name="Layer 2"><path fill="none" d="M0 0h48v48H0z" data-name="invisible box"/><g data-name="icons Q2"><path d="M24 6.2c5.3 1.5 11.1 3.3 14 4.3v15.7c0 3.4-3.7 9.4-14 15.4-10.3-6.1-14-12-14-15.4V10.5c2.9-1.1 8.7-2.8 14-4.3M24 2S6 7.1 6 8v18.2c0 9.2 13.3 17.3 17 19.5a1.8 1.8 0 0 0 2 0c3.8-2.1 17-10.3 17-19.5V8c0-.9-18-6-18-6Z"/><path d="m19.6 29.4-5-4.9a2.1 2.1 0 0 1-.2-2.7 1.9 1.9 0 0 1 3-.2l3.6 3.6 9.6-9.6a2 2 0 0 1 2.8 2.8l-11 11a1.9 1.9 0 0 1-2.8 0Z"/></g></g></symbol>
<symbol id="star" width="800" height="800" viewBox="0 0 24 24" fill="none"><path d="M11.2691 4.41115c.2315-.51938.3473-.77907.5085-.85904a.4998.4998 0 0 1 .4444 0c.1612.07997.277.33966.5085.85904l1.844 4.13693c.0685.15354.1027.23031.1557.2891a.49963.49963 0 0 0 .168.12211c.0723.0322.1559.04102.3231.05866l4.5043.47541c.5655.05968.8482.08952.9741.21811a.5001.5001 0 0 1 .1373.42273c-.0262.178-.2374.3683-.6598.749l-3.3647 3.0322c-.1248.1125-.1873.1688-.2268.2373a.50002.50002 0 0 0-.0642.1976c-.0083.0787.0091.1609.044.3254l.9398 4.4307c.118.5563.177.8344.0936.9938a.49997.49997 0 0 1-.3596.2613c-.1774.03-.4237-.112-.9163-.3961l-3.9235-2.263c-.1456-.084-.2184-.1259-.2958-.1424a.50177.50177 0 0 0-.2078 0c-.0774.0165-.1502.0584-.2958.1424l-3.92348 2.263c-.49258.2841-.73887.4261-.91628.3961a.49982.49982 0 0 1-.35959-.2613c-.08339-.1594-.0244-.4375.09359-.9938l.93976-4.4307c.03488-.1645.05232-.2467.04404-.3254a.5005.5005 0 0 0-.0642-.1976c-.03955-.0685-.10199-.1248-.22686-.2373l-3.36462-3.0322c-.42241-.3807-.63362-.571-.65988-.749a.50002.50002 0 0 1 .13735-.42273c.12588-.12859.40863-.15843.97413-.21811l4.50429-.47541c.16718-.01764.25076-.02646.32304-.05866a.5.5 0 0 0 .16807-.12211c.05295-.05879.08717-.13556.15562-.2891l1.84402-4.13693Z" stroke-width="2" stroke-linecap="round" stroke-linejoin="round"/></symbol>
<symbol id="trending_up" width="800" height="800" viewBox="0 0 24 24" fill="none"><path d="m21 7-8 8-4-4-6 6M21 7h-6m6 0v6" stroke-width="1.5" stroke-linecap="round" stroke-linejoin="round"/></symbol>
<symbol id="verified" width="800" height="800" viewBox="0 0 16 16"><path fill-rule="evenodd" clip-rule="evenodd" d="M7.67 14.72h.71L10.1 13h2.4l.5-.5v-2.42l1.74-1.72v-.71l-1.71-1.72V3.49l-.5-.49H10.1L8.38 1.29h-.71L6 3H3.53L3 3.5v2.43L1.31 7.65v.71L3 10.08v2.42l.53.5H6l1.67 1.72zM6.16 12H4V9.87l-.12-.35L2.37 8l1.48-1.51.15-.35V4h2.16l.36-.14L8 2.35l1.54 1.51.35.14H12v2.14l.17.35L13.69 8l-1.55 1.52-.14.35V12H9.89l-.38.15L8 13.66l-1.48-1.52-.36-.14zm.57-1.52h.71l3.77-3.77L10.5 6 7.09 9.42 5.71 8.04 5 8.75l1.73 1.73z"/></symbol>
<symbol id="woman" width="800" height="800" viewBox="0 0 512 512"><circle cx="255.75" cy="56" r="56"/><path d="M310.28 191.4h.05l7.66-2.3 36.79 122.6 46-13.8-16.21-54.16c0-.12 0-.24-.07-.36l-16.84-56.12-4.71-15.74-.9-3H362l-2.51-8.45a44.84 44.84 0 0 0-43-32.08H195.24a44.84 44.84 0 0 0-43 32.08l-2.51 8.45h-.06l-.9 3-4.71 15.74-16.84 56.12c0 .12 0 .24-.07.36l-16.21 54.16 46 13.8 36.76-122.6 7.54 2.26L148.25 368h51.5v144h52V368h8v144h52V368h51.51Z"/></symbol>
</svg>