<svg width="800" height="800" viewBox="0 0 24 24" fill="none" xmlns="http://www.w3.org/2000/svg"><path d="M11.2691 4.41115c.2315-.51938.3473-.77907.5085-.85904a.4998.4998 0 0 1 .4444 0c.1612.07997.277.33966.5085.85904l1.844 4.13693c.0685.15354.1027.23031.1557.2891a.49963.49963 0 0 0 .168.12211c.0723.0322.1559.04102.3231.05866l4.5043.47541c.5655.05968.8482.08952.9741.21811a.5001.5001 0 0 1 .1373.42273c-.0262.178-.2374.3683-.6598.749l-3.3647 3.0322c-.1248.1125-.1873.1688-.2268.2373a.50002.50002 0 0 0-.0642.1976c-.0083.0787.0091.1609.044.3254l.9398 4.4307c.118.5563.177.8344.0936.9938a.49997.49997 0 0 1-.3596.2613c-.1774.03-.4237-.112-.9163-.3961l-3.9235-2.263c-.1456-.084-.2184-.1259-.2958-.1424a.50177.50177 0 0 0-.2078 0c-.0774.0165-.1502.0584-.2958.1424l-3.92348 2.263c-.49258.2841-.73887.4261-.91628.3961a.49982.49982 0 0 1-.35959-.2613c-.08339-.1594-.0244-.4375.09359-.9938l.93976-4.4307c.03488-.1645.05232-.2467.04404-.3254a.5005.5005 0 0 0-.0642-.1976c-.03955-.0685-.10199-.1248-.22686-.2373l-3.36462-3.0322c-.42241-.3807-.63362-.571-.65988-.749a.50002.50002 0 0 1 .13735-.42273c.12588-.12859.40863-.15843.97413-.21811l4.50429-.47541c.16718-.01764.25076-.02646.32304-.05866a.5.5 0 0 0 .16807-.12211c.05295-.05879.08717-.13556.15562-.2891l1.84402-4.13693Z" stroke="#000" stroke-width="2" stroke-linecap="round" stroke-linejoin="round"/></svg>